<svg width="18" height="18" viewBox="0 0 18 18" fill="none" xmlns="http://www.w3.org/2000/svg">
  <path d="M13.73 13.73C14.4127 13.0473 14.8 12.1424 14.8 11.2V8.2C14.8 5.88609 12.9139 4 10.6 4H7.4C5.08609 4 3.2 5.88609 3.2 8.2V11.2C3.2 12.1424 3.58734 13.0473 4.27 13.73L5 14.46V15.4C5 15.7314 5.26863 16 5.6 16H12.4C12.7314 16 13 15.7314 13 15.4V14.46L13.73 13.73Z" stroke="currentColor" stroke-width="1.5" fill="none"/>
  <path d="M7 2C7 1.44772 7.44772 1 8 1H10C10.5523 1 11 1.44772 11 2V4H7V2Z" stroke="currentColor" stroke-width="1.5" fill="none"/>
</svg>